<svg height="100" viewBox="0 0 100 100" width="100" xmlns="http://www.w3.org/2000/svg"><path d="m33.63 49.98-3.91 23.42-10.25 2.34-3.4-1.7v-24.06z" fill="#9d5025"/><path d="m83.95 41.73-33.95 2.41-33.95-2.41 33.95-32.73z" fill="#6b3b19"/><path d="m56.76 49.98h-37.29v25.76l37.29-8.53z" fill="#f58534"/><path d="m38.12 49.98 1.22 26.34-11.94 3.38-4.17-2.08v-27.64z" fill="#9d5025"/><path d="m67.93 49.98h-40.53v29.72l40.53-11.5z" fill="#f58534"/><path d="m46.61 49.98v31.27l-9.31 3.4-5.24-2.62v-32.05z" fill="#9d5025"/><path d="m76.76 49.98h-39.46v34.67l39.46-14.43z" fill="#f58534"/><path d="m43.23 87.62v-37.64h25.7l12.33 25.39-31.27 15.63z" fill="#9d5025"/><path d="m49.99 91v-41.02h33.95v24.05z" fill="#f58534"/><path d="m83.95 41.73-33.95-5.84v-26.89l33.95 16.97z" fill="#f58534"/><path d="m16.05 41.73 33.95-5.84v-26.89l-33.95 16.97z" fill="#9d5025"/></svg>